# xmcd CD database file generated by Grip 3.2.0
# 
# Track frame offsets:
#       150
#       12112
#       27557
#       42507
#       68555
#       82117
#       102900
#       122575
#       139017
#       155780
#       174600
#       189337
#       209107
# 
# Disc length: 3076 seconds
# 
# Revision: 1
# Processed by: cddbd v1.5.1PL0 Copyright (c) Steve Scherf et al.
# Submitted via: Grip 3.2.0
# 
DISCID=b80c020d
DTITLE=Sojiro - Ocarina ETUDE 5 (Screen Music)
DYEAR=2003
DGENRE=New Age
TTITLE0=Infanzia E Maturita
TTITLE1=Unchained Melody
TTITLE2=Itsumo Nandodemo
TTITLE3=Mononoke Hime
TTITLE4=Tara's Theme
TTITLE5=My Heart Will Go On
TTITLE6=Now We Are Free
TTITLE7=The Rose
TTITLE8=May It Be
TTITLE9=Melody Fair
TTITLE10=Moon River
TTITLE11=Soshu Yakyoku
TTITLE12=When You Wish Upon A Star
EXTD=YEAR: 2003
EXTT0=
EXTT1=
EXTT2=
EXTT3=
EXTT4=
EXTT5=
EXTT6=
EXTT7=
EXTT8=
EXTT9=
EXTT10=
EXTT11=
EXTT12=
PLAYORDER=
